<svg xmlns="http://www.w3.org/2000/svg" viewBox="0 0 64 64">
  <rect width="64" height="64" rx="8" fill="#ffffff"/>
  <g transform="translate(6.80, 47.33) scale(0.042, -0.042)">
    <path d="M237 0V265L23 730H154L268 477Q281 447 290.0 418.0Q299 389 302 373Q306 389 314.5 418.0Q323 447 336 477L447 730H577L363 265V0Z" fill="#111111"/>
    <g transform="translate(600, 0)">
      <path d="M28 0 230 374 40 730H180L272 547Q282 527 290.0 508.5Q298 490 302 480Q305 490 313.0 508.5Q321 527 331 547L424 730H560L370 377L572 0H432L329 202Q319 221 310.5 240.5Q302 260 298 271Q294 260 286.0 241.0Q278 222 268 202L164 0Z" fill="#111111"/>
    </g>
  </g>
</svg>
